<svg width="1000" height="990" viewBox="0 0 1000 990" fill="none" xmlns="http://www.w3.org/2000/svg">
<rect width="1000" height="990" fill="#85C5E5"/>
<mask id="mask0_104_2" style="mask-type:luminance" maskUnits="userSpaceOnUse" x="0" y="0" width="1000" height="966">
<path d="M1000 0H0V718.31H179.2C217.58 860.69 346.65 965.41 500 965.41C653.35 965.41 782.42 860.69 820.8 718.31H1000V0Z" fill="white"/>
</mask>
<g mask="url(#mask0_104_2)">
<path d="M500 962.602C683.603 962.602 832.442 813.763 832.442 630.16C832.442 446.557 683.603 297.718 500 297.718C316.397 297.718 167.558 446.557 167.558 630.16C167.558 813.763 316.397 962.602 500 962.602Z" fill="#85C5E5"/>
<path d="M610 758.72C700.76 758.72 682 872.96 682.87 1000H610V758.72Z" fill="#FDD2B2"/>
<path d="M632.74 831.87L610 870L621.38 1000H653.14C653.91 819.73 632.74 831.87 632.74 831.87Z" fill="#F3AB98"/>
<path d="M233.25 500C233.25 352.68 352.68 233.25 500 233.25C647.32 233.25 766.75 352.68 766.75 500C766.788 539.694 757.949 578.895 740.88 614.731C723.811 650.568 698.944 682.135 668.1 707.12C662.627 711.573 656.98 715.803 651.16 719.81C591 758 515 758 446.39 751.89C439.73 750.89 433.09 749.63 426.5 748.18C400.17 742.38 374.68 733.43 351.13 720.38C345.31 716.793 339.667 712.92 334.2 708.76C328.705 704.576 323.432 700.11 318.4 695.38C313.64 690.96 309.043 686.367 304.61 681.6C258.667 632.299 233.161 567.39 233.25 500Z" fill="#FDD2B2"/>
<path d="M269.61 634.48C270.31 635.68 271 636.88 271.72 638.06C272.15 638.78 272.6 639.48 273.05 640.2C273.71 641.27 274.37 642.34 275.05 643.39C275.53 644.15 276.05 644.89 276.51 645.63C277.17 646.63 277.83 647.63 278.51 648.63C279.02 649.39 279.51 650.15 280.07 650.91C280.73 651.91 281.39 652.83 282.07 653.79C282.61 654.56 283.17 655.32 283.72 656.09C284.27 656.86 285.06 657.94 285.72 658.86C286.38 659.78 286.87 660.39 287.45 661.15C288.03 661.91 288.82 662.95 289.52 663.85C290.22 664.75 290.71 665.36 291.31 666.11C291.91 666.86 292.72 667.87 293.43 668.74C294.14 669.61 294.66 670.23 295.28 670.97C295.9 671.71 296.72 672.69 297.45 673.54C298.18 674.39 298.72 675.01 299.36 675.74L301.58 678.24C302.23 678.97 302.89 679.68 303.58 680.4C304.44 681.34 305.31 682.27 306.18 683.19L307.39 684.47C308.68 685.81 309.98 687.15 311.3 688.47L311.56 688.74C312.85 690.02 314.16 691.29 315.47 692.55L317.05 694.05C318 694.94 318.95 695.83 319.91 696.71L321.07 697.77C322.07 698.71 323.16 699.63 324.21 700.55C327.477 703.397 330.81 706.127 334.21 708.74C339.67 712.9 345.313 716.773 351.14 720.36C374.69 733.36 400.14 742.36 426.51 748.16C433.1 749.61 439.74 750.86 446.4 751.87C488.5 755.62 533.4 757.05 575.68 748.79C508.45 729 185.59 612.74 388.8 257.48C386.08 258.73 383.4 260.02 380.74 261.36L380.15 261.65C378.93 262.26 377.71 262.89 376.5 263.53L375.5 264.06C371.74 266.06 368.02 268.13 364.37 270.29L363.47 270.82C362.31 271.51 361.16 272.21 360.01 272.92L359.14 273.46C355.567 275.693 352.05 278.003 348.59 280.39L347.51 281.14C346.42 281.9 345.35 282.66 344.28 283.43L343.62 283.9C341.44 285.493 339.287 287.107 337.16 288.74L336.54 289.22C335.54 290 334.54 290.8 333.54 291.61L332.37 292.55C331.37 293.36 330.37 294.17 329.37 295C327.26 296.75 325.18 298.55 323.13 300.37L321.99 301.37L319.3 303.82L318 305C315.147 307.667 312.357 310.39 309.63 313.17L308.25 314.58C307.46 315.4 306.67 316.22 305.89 317.05C305.43 317.54 304.97 318.05 304.52 318.53C303.147 319.997 301.793 321.483 300.46 322.99C300.01 323.5 299.55 323.99 299.1 324.53C298.39 325.34 297.69 326.16 296.99 326.98L295.48 328.77C294.8 329.58 294.12 330.39 293.48 331.21C292.94 331.87 292.4 332.54 291.87 333.21C290.8 334.54 289.75 335.87 288.71 337.21C288.17 337.91 287.63 338.61 287.1 339.32C286.57 340.03 285.9 340.91 285.31 341.72C284.72 342.53 284.24 343.17 283.72 343.9C283.2 344.63 282.59 345.45 282.04 346.23C281.093 347.563 280.16 348.913 279.24 350.28C278.74 351.01 278.24 351.76 277.75 352.5C277.26 353.24 276.65 354.16 276.11 355L274.62 357.31L272.94 360.02C272.51 360.71 272.08 361.4 271.66 362.09C270.77 363.55 269.91 365.02 269.05 366.49L267.83 368.65C267.29 369.6 266.75 370.56 266.22 371.52C265.82 372.25 265.42 372.98 265.03 373.71C264.39 374.9 263.76 376.1 263.13 377.3L261.93 379.64C261.29 380.92 260.65 382.19 260.02 383.48C259.69 384.17 259.35 384.87 259.02 385.57C258.5 386.66 258.02 387.76 257.49 388.86C257.18 389.52 256.88 390.18 256.58 390.86C255.84 392.507 255.117 394.173 254.41 395.86C254.19 396.38 253.98 396.91 253.76 397.43C253.23 398.7 252.71 399.97 252.2 401.25C251.93 401.92 251.67 402.59 251.41 403.25C250.91 404.51 250.41 405.78 249.96 407.05C249.75 407.6 249.54 408.15 249.34 408.7C248.713 410.453 248.097 412.207 247.49 413.96L246.93 415.66C246.49 416.993 246.06 418.327 245.64 419.66L245.04 421.57C244.57 423.11 244.11 424.65 243.67 426.2C243.57 426.53 243.47 426.86 243.38 427.2C242.86 429.04 242.36 430.887 241.88 432.74C241.72 433.33 241.58 433.93 241.43 434.52C241.08 435.91 240.74 437.3 240.43 438.7L240.01 440.45C239.58 442.35 239.16 444.25 238.77 446.16L238.62 446.93C238.28 448.63 237.947 450.33 237.62 452.03C237.51 452.64 237.41 453.24 237.3 453.85C237.04 455.34 236.79 456.85 236.56 458.35C236.48 458.86 236.39 459.35 236.32 459.87C236.02 461.82 235.75 463.78 235.49 465.75L235.34 467.05C235.14 468.64 234.96 470.24 234.79 471.84C234.73 472.44 234.66 473.04 234.6 473.65C234.44 475.33 234.29 477.02 234.15 478.71C234.15 479.06 234.09 479.4 234.07 479.71C233.923 481.71 233.793 483.727 233.68 485.76C233.68 486.29 233.68 486.83 233.61 487.36C233.543 488.933 233.483 490.503 233.43 492.07C233.43 492.66 233.43 493.25 233.43 493.84C233.43 495.89 233.35 497.95 233.35 500.01C233.35 500.01 233.35 500.08 233.35 500.11C233.35 502.33 233.35 504.53 233.43 506.73C233.43 507.49 233.49 508.25 233.51 509.01C233.56 510.48 233.61 511.95 233.68 513.42C233.68 514.31 233.79 515.19 233.84 516.08C233.92 517.41 233.99 518.74 234.09 520.08C234.16 521.08 234.25 521.97 234.33 522.91C234.44 524.17 234.54 525.43 234.67 526.68C234.76 527.68 234.88 528.62 234.98 529.59C235.12 530.8 235.25 532.02 235.4 533.23C235.52 534.23 235.66 535.23 235.79 536.18C235.95 537.36 236.11 538.55 236.29 539.73C236.44 540.73 236.6 541.73 236.76 542.73C236.94 543.89 237.13 545.06 237.33 546.22C237.51 547.22 237.69 548.22 237.88 549.22C238.09 550.37 238.31 551.52 238.53 552.66C238.75 553.8 238.94 554.66 239.15 555.66C239.39 556.8 239.63 557.93 239.89 559.06C240.15 560.19 240.33 561.06 240.57 561.99C240.83 563.12 241.11 564.24 241.39 565.35C241.67 566.46 241.88 567.3 242.13 568.26C242.43 569.38 242.73 570.49 243.04 571.6C243.3 572.6 243.57 573.52 243.85 574.47C244.17 575.58 244.5 576.68 244.85 577.78C245.2 578.88 245.43 579.67 245.73 580.62C246.03 581.57 246.43 582.81 246.79 583.9C247.15 584.99 247.41 585.77 247.73 586.7C248.11 587.79 248.49 588.88 248.88 589.97C249.21 590.88 249.53 591.8 249.88 592.71L251.12 595.98C251.47 596.87 251.81 597.77 252.12 598.66C252.56 599.75 253.01 600.85 253.46 601.94C253.82 602.8 254.17 603.67 254.54 604.53C255.01 605.65 255.54 606.75 255.99 607.86C256.36 608.68 256.72 609.51 257.09 610.33C257.61 611.49 258.16 612.63 258.69 613.77L259.77 616.07C260.38 617.33 261.01 618.57 261.64 619.82C261.96 620.45 262.26 621.09 262.59 621.72C264.51 625.46 266.51 629.15 268.59 632.79C268.88 633.26 269.25 633.87 269.61 634.48Z" fill="#F3AB98"/>
<path d="M233.25 500C233.25 352.68 352.68 233.25 500 233.25C647.32 233.25 766.75 352.68 766.75 500C766.788 539.694 757.949 578.895 740.88 614.731C723.811 650.568 698.944 682.135 668.1 707.12C662.627 711.573 656.98 715.803 651.16 719.81C591 758 515 758 446.39 751.89C439.73 750.89 433.09 749.63 426.5 748.18C400.17 742.38 374.68 733.43 351.13 720.38C345.31 716.793 339.667 712.92 334.2 708.76C328.705 704.576 323.432 700.11 318.4 695.38C313.64 690.96 309.043 686.367 304.61 681.6C258.667 632.299 233.161 567.39 233.25 500Z" stroke="#592D3D" stroke-width="12" stroke-miterlimit="10"/>
<path d="M386.12 758.72C295.35 758.72 314.12 872.96 313.25 1000H386.12V758.72Z" fill="#FDD2B2"/>
<path d="M367.23 831.87L390 870L378.61 1000H346.88C346.07 819.73 367.23 831.87 367.23 831.87Z" fill="#F3AB98"/>
<path d="M619.47 1070H380.53C377.01 1070 373.634 1068.6 371.146 1066.11C368.658 1063.62 367.26 1060.24 367.26 1056.72V772C367.26 768.48 368.658 765.103 371.146 762.613C373.634 760.123 377.01 758.723 380.53 758.72H613.76C626.85 758.72 632.76 766.38 632.76 778.6V1056.68C632.765 1058.43 632.425 1060.16 631.76 1061.78C631.094 1063.39 630.116 1064.86 628.881 1066.1C627.646 1067.34 626.179 1068.32 624.564 1068.99C622.949 1069.66 621.218 1070 619.47 1070Z" fill="#FDD2B2"/>
<path d="M629.05 766.62C628.053 765.394 627.21 764.051 626.54 762.62C624.139 760.738 621.282 759.527 618.26 759.11C616.771 758.879 615.267 758.766 613.76 758.77H380.53C377.018 758.773 373.651 760.166 371.164 762.645C368.677 765.125 367.273 768.488 367.26 772C396.26 782.42 450.55 788.24 500 788.24C563.06 788.24 604.38 778.89 629.05 766.62Z" fill="#F3AB98"/>
<path d="M610 758.72C700.76 758.72 682 872.96 682.87 1000H632.74" stroke="#592D3D" stroke-width="12" stroke-miterlimit="10" stroke-linecap="square"/>
<path d="M386.12 758.72C295.35 758.72 314.12 872.96 313.25 1000H363.32" stroke="#592D3D" stroke-width="12" stroke-miterlimit="10" stroke-linecap="square"/>
<path d="M380.53 758.82L613.76 758.72" stroke="#592D3D" stroke-width="12" stroke-miterlimit="10"/>
<path d="M380.53 1070H497.15C388 1070 396.24 838.82 367.26 838.82V1056.68C367.255 1058.43 367.594 1060.16 368.258 1061.77C368.923 1063.39 369.899 1064.86 371.132 1066.09C372.364 1067.33 373.829 1068.31 375.442 1068.98C377.054 1069.65 378.783 1070 380.53 1070Z" fill="#F3AB98"/>
<path d="M361.26 860.85C361.07 857.18 361.15 853.51 361.31 849.85C361.47 846.19 361.78 842.5 362.17 838.85C362.37 837.01 362.57 835.18 362.82 833.34C363.07 831.5 363.31 829.67 363.67 827.83C364.379 824.022 365.586 820.324 367.26 816.83C368.934 820.324 370.141 824.022 370.85 827.83C371.21 829.67 371.47 831.5 371.7 833.34C371.93 835.18 372.15 837.01 372.35 838.85C372.73 842.52 373.03 846.19 373.2 849.85C373.37 853.51 373.45 857.19 373.26 860.85H361.26Z" fill="#592D3D"/>
<path d="M632.74 870V878C633 912 633 947 632.74 980.75C632.74 983.62 632.74 986.47 632.74 989.28V1056.69C632.744 1058.44 632.404 1060.16 631.739 1061.78C631.074 1063.39 630.097 1064.86 628.865 1066.1C627.632 1067.33 626.168 1068.31 624.556 1068.98C622.944 1069.65 621.216 1070 619.47 1070H380.53C377.01 1070 373.634 1068.6 371.146 1066.11C368.658 1063.62 367.26 1060.24 367.26 1056.72V998.52C367.26 996.01 367.26 993.45 367.26 990.87C367.01 956 367.01 921 367.26 885.57V860.85" stroke="#592D3D" stroke-width="12" stroke-miterlimit="10"/>
<path d="M626.74 870C626.55 865.83 626.64 861.65 626.8 857.47C626.96 853.29 627.27 849.12 627.65 844.94C627.85 842.85 628.06 840.76 628.3 838.67C628.54 836.58 628.79 834.5 629.15 832.41C629.847 828.106 631.052 823.9 632.74 819.88C634.428 823.9 635.633 828.106 636.33 832.41C636.69 834.5 636.95 836.59 637.18 838.67C637.41 840.75 637.63 842.85 637.83 844.94C638.21 849.12 638.52 853.29 638.68 857.47C638.84 861.65 638.93 865.83 638.74 870H626.74Z" fill="#592D3D"/>
<path d="M570.68 842.45C570.9 833 582.9 829 588.9 835C589.875 835.995 590.645 837.173 591.164 838.466C591.684 839.759 591.944 841.141 591.93 842.535C591.916 843.928 591.627 845.305 591.081 846.587C590.534 847.868 589.74 849.03 588.745 850.005C587.75 850.98 586.572 851.75 585.279 852.269C583.986 852.789 582.604 853.05 581.21 853.035C579.817 853.021 578.44 852.732 577.158 852.186C575.877 851.639 574.715 850.845 573.74 849.85C572.766 848.88 571.994 847.727 571.469 846.456C570.944 845.186 570.676 843.825 570.68 842.45Z" fill="#592D3D"/>
<path d="M408.11 842.15C407.9 834 416.9 830 422.9 833C430.9 836 430.9 847 422.9 852C418.9 854 414.9 852 411.15 849.52C410.183 848.552 409.417 847.403 408.895 846.138C408.373 844.873 408.106 843.518 408.11 842.15Z" fill="#592D3D"/>
<path d="M500 831.77C500.715 833.655 501.219 835.614 501.5 837.61C501.798 839.543 501.961 841.494 501.99 843.45L502.29 855.14C502.38 859.03 502.5 862.93 502.54 866.83L502.71 878.5C502.94 894.07 502.93 909.66 502.99 925.24C503.05 940.82 503.17 956.4 502.99 971.98C502.9 979.77 502.69 987.56 502.46 995.35C502.36 999.24 502.17 1003.14 501.79 1007.03C501.45 1010.96 500.859 1014.87 500.02 1018.72C499.181 1014.87 498.59 1010.96 498.25 1007.03C497.87 1003.14 497.68 999.24 497.58 995.35C497.35 987.56 497.14 979.77 497.05 971.98C496.85 956.4 497.05 940.82 497.05 925.24C497.05 909.66 497.05 894.09 497.23 878.51L497.4 866.81L497.73 855.13L498.06 843.45C498.097 841.494 498.264 839.543 498.56 837.61C498.822 835.616 499.305 833.657 500 831.77Z" fill="#F3AB98"/>
<path d="M425.22 883C426.703 882.295 428.274 881.791 429.89 881.5C431.434 881.21 432.999 881.043 434.57 881L443.92 880.67L462.62 880.26C475.08 880.07 487.53 880.02 500 879.99C512.47 879.96 524.93 879.83 537.39 879.99C543.62 880.08 549.85 880.29 556.09 880.52C559.2 880.63 562.32 880.82 565.43 881.19C568.588 881.54 571.714 882.135 574.78 882.97C571.716 883.81 568.589 884.402 565.43 884.74C562.32 885.12 559.2 885.31 556.09 885.41C549.85 885.64 543.62 885.84 537.39 885.93C524.93 886.12 512.47 885.93 500 885.93C487.53 885.93 475.07 885.93 462.6 885.78C456.37 885.72 450.14 885.52 443.92 885.28L434.57 884.94C433.002 884.898 431.441 884.731 429.9 884.44C428.283 884.17 426.709 883.686 425.22 883Z" fill="#F3AB98"/>
<path d="M442.41 914.38C443.591 913.817 444.853 913.442 446.15 913.27C447.349 913.101 448.561 913.05 449.77 913.12C452.16 913.22 454.55 913.28 456.94 913.33C461.72 913.44 466.5 913.48 471.28 913.5C480.91 913.5 490.37 913.58 500.04 913.29C509.71 913 519.3 912.86 528.92 912.9C533.73 912.9 538.54 913.03 543.34 913.14C545.756 913.172 548.17 913.329 550.57 913.61C553.037 913.882 555.472 914.395 557.84 915.14C555.527 916.048 553.128 916.718 550.68 917.14C548.296 917.569 545.888 917.857 543.47 918C538.65 918.35 533.83 918.65 529.02 918.82C519.38 919.18 509.75 919.14 500.14 919.27C495.33 919.27 490.53 919.49 485.66 919.37C480.79 919.25 475.97 919.24 471.14 919.06C466.31 918.88 461.46 918.48 456.64 917.98C454.22 917.71 451.82 917.41 449.41 917.08C448.193 916.931 446.996 916.649 445.84 916.24C444.599 915.82 443.439 915.191 442.41 914.38Z" fill="#F3AB98"/>
<path d="M438.93 949.87C440.116 949.172 441.406 948.666 442.75 948.37C444.004 948.079 445.283 947.914 446.57 947.88L454.2 947.56C459.29 947.38 464.39 947.23 469.48 947.15C479.66 947 489.84 947 500 947C510.16 947 520.36 946.83 530.54 947C535.63 947.09 540.72 947.3 545.81 947.53C548.363 947.616 550.91 947.836 553.44 948.19C556.045 948.547 558.61 949.154 561.1 950C558.618 950.831 556.064 951.423 553.47 951.77C550.937 952.132 548.387 952.356 545.83 952.44C540.74 952.67 535.65 952.88 530.56 952.97C520.38 953.17 510.19 953.03 500.01 952.97C489.83 952.91 479.65 952.91 469.47 952.72C464.38 952.62 459.28 952.44 454.19 952.23L446.56 951.86C445.273 951.821 443.993 951.653 442.74 951.36C441.399 951.07 440.112 950.567 438.93 949.87Z" fill="#F3AB98"/>
<path d="M613.76 758.16H559.55V758.26H589C589.002 767.375 588.294 776.476 586.88 785.48C586.213 789.86 585.357 794.153 584.31 798.36C581.274 810.482 576.307 822.036 569.6 832.58C567.581 835.711 565.374 838.717 562.99 841.58C525.93 878.58 467.04 880.58 431.25 840.39C427.288 835.602 423.789 830.449 420.8 825C414.138 812.69 409.608 799.342 407.4 785.52C406.733 781.14 406.207 776.677 405.82 772.13C405.47 767.59 405.28 762.98 405.28 758.31H434.75V758.21H380.53C381.35 780.5 378.94 833.85 371.42 842.69L367.26 1056.17C367.26 1059.69 368.658 1063.06 371.147 1065.55C373.635 1068.04 377.011 1069.44 380.53 1069.44H619.47C622.989 1069.44 626.365 1068.04 628.853 1065.55C631.342 1063.06 632.74 1059.69 632.74 1056.17L630.36 840.81C620.61 840.76 613.42 783.07 613.76 758.16Z" fill="#633749"/>
<path d="M632.74 831.31L609.95 869.4L621.34 999.43H632.94V893.78L632.74 831.31Z" fill="#5E3244"/>
<path d="M380.53 1069.39H497.15C387.95 1069.39 396.24 838.25 367.26 838.25V1056.12C367.26 1059.64 368.658 1063.01 371.147 1065.5C373.635 1067.99 377.011 1069.39 380.53 1069.39Z" fill="#5E3244"/>
<path d="M361.26 860.4C361.047 857.642 361.013 854.873 361.16 852.11C361.287 849.343 361.523 846.573 361.87 843.8C362.05 842.41 362.22 841.03 362.44 839.64C362.66 838.25 362.88 836.87 363.22 835.48C363.905 832.528 365.066 829.708 366.66 827.13C368.347 829.646 369.607 832.423 370.39 835.35C370.78 836.73 371.07 838.11 371.32 839.48C371.57 840.85 371.82 842.24 372.04 843.62C372.48 846.37 372.83 849.13 373.04 851.89C373.295 854.646 373.365 857.415 373.25 860.18L361.26 860.4Z" fill="#592D3D"/>
<path d="M632.74 869.4V877.4C633 911.4 633 946.4 632.74 980.16C632.74 983.03 632.74 985.88 632.74 988.69V1056.1C632.74 1059.62 631.342 1062.99 628.853 1065.48C626.365 1067.97 622.989 1069.37 619.47 1069.37H380.53C377.011 1069.37 373.635 1067.97 371.147 1065.48C368.658 1062.99 367.26 1059.62 367.26 1056.1V998C367.26 995.493 367.26 992.943 367.26 990.35C367.01 955.49 367.01 920.49 367.26 885.05V860.29" stroke="#592D3D" stroke-width="12" stroke-miterlimit="10"/>
<path d="M626.76 869.38C626.791 866.526 627.008 863.676 627.41 860.85C627.79 858.017 628.277 855.193 628.87 852.38C629.17 850.97 629.47 849.56 629.81 848.16C630.15 846.76 630.5 845.35 630.96 843.95C631.903 840.985 633.315 838.19 635.14 835.67C636.606 838.416 637.619 841.381 638.14 844.45C638.4 845.9 638.56 847.34 638.69 848.78C638.82 850.22 638.94 851.66 639.04 853.09C639.22 855.96 639.32 858.83 639.29 861.68C639.29 864.535 639.11 867.387 638.75 870.22L626.76 869.38Z" fill="#592D3D"/>
<path d="M368.1 833C389.68 827.73 380.53 758.27 380.53 758.27L613.76 758.17C613.76 758.17 617.69 834.79 632.94 841.09" stroke="#592D3D" stroke-width="12" stroke-miterlimit="10"/>
<path d="M589 758.26C589.006 767.374 588.3 776.475 586.89 785.48C586.223 789.86 585.367 794.153 584.32 798.36C581.284 810.482 576.317 822.036 569.61 832.58C567.591 835.711 565.384 838.717 563 841.58C525.94 878.58 467.05 880.58 431.26 840.39C427.294 835.602 423.792 830.449 420.8 825C414.138 812.69 409.608 799.342 407.4 785.52C406.733 781.14 406.207 776.677 405.82 772.13C405.47 767.59 405.28 762.98 405.28 758.31" stroke="#592D3D" stroke-width="12" stroke-miterlimit="10"/>
<path d="M566.88 947.83C566.88 938.97 555.78 930.57 538.77 925.36C542.7 908.02 540.95 894.23 533.26 889.81C531.467 888.621 529.324 888.071 527.18 888.25C519.18 888.38 509.87 893.6 499.95 902.87C490 893.65 479 888.2 472.71 888.36C469.55 888.45 468.34 888.88 466.55 889.92C458.88 894.33 457.17 908.1 461.12 925.39C444.12 930.62 433.12 939 433.12 947.83C433.12 956.66 444.22 965.09 461.23 970.3C457.3 987.64 459.05 1001.43 466.74 1005.85C468.609 1006.9 470.726 1007.43 472.87 1007.38C480.37 1007.38 490.18 1002.03 500.11 992.76C510.03 1001.98 519.85 1007.27 527.35 1007.27C529.503 1007.32 531.629 1006.79 533.51 1005.74C541.17 1001.32 542.89 987.55 538.93 970.27C555.84 965.06 566.88 956.66 566.88 947.83ZM527.16 894.34C528.237 894.309 529.304 894.553 530.26 895.05C533.97 897.18 535.58 905.28 534.33 915.69C534.03 918.25 533.54 920.95 532.94 923.69C527.239 922.309 521.453 921.307 515.62 920.69C512.148 915.899 508.359 911.346 504.28 907.06C513.16 898.87 521.49 894.35 527.16 894.34ZM475.84 961.79C477.12 963.97 478.43 966.097 479.77 968.17C475.9 967.6 472.16 966.89 468.59 966.02C469.59 962.5 470.85 958.87 472.27 955.25C473.39 957.43 474.56 959.61 475.84 961.79ZM468.51 929.64C472.08 928.8 475.84 928.06 479.74 927.49C478.41 929.59 477.07 931.74 475.82 933.95C474.57 936.16 473.39 938.31 472.27 940.49C470.836 936.938 469.582 933.317 468.51 929.64ZM475.46 947.91C477.15 944.26 479.06 940.6 481.11 937.03C483.16 933.46 485.41 929.86 487.68 926.62C491.74 926.26 495.86 926.07 500 926.07C504.14 926.07 508.23 926.26 512.27 926.59C514.53 929.83 516.74 933.3 518.87 936.95C521 940.6 522.87 944.15 524.54 947.8C522.82 951.46 520.94 955.11 518.89 958.68C516.84 962.25 514.59 965.85 512.32 969.1C508.26 969.45 504.14 969.64 500 969.64C495.86 969.64 491.77 969.45 487.73 969.12C485.47 965.88 483.26 962.42 481.13 958.76C479 955.1 477.18 951.56 475.46 947.91ZM524.16 961.71C525.41 959.53 526.58 957.32 527.7 955.14C529.134 958.695 530.389 962.319 531.46 966C527.89 966.87 524.13 967.61 520.23 968.18C521.57 966.07 522.9 963.92 524.16 961.71ZM524.16 933.87C522.91 931.69 521.57 929.56 520.23 927.49C524.11 928.057 527.837 928.773 531.41 929.64C530.41 933.16 529.15 936.79 527.73 940.41C526.58 938.23 525.41 936.05 524.13 933.87H524.16ZM507.5 920.15C505.04 920.05 502.5 919.96 500 919.96C497.5 919.96 494.9 920.02 492.42 920.15C494.76 917.109 497.264 914.198 499.92 911.43C502.592 914.207 505.122 917.117 507.5 920.15ZM469.57 895.15C470.534 894.636 471.619 894.39 472.71 894.44C478.35 894.44 486.71 898.94 495.61 907.15C491.551 911.422 487.789 915.966 484.35 920.75C478.508 921.354 472.715 922.357 467.01 923.75C466.38 921.03 465.92 918.38 465.59 915.85C464.31 905.43 465.89 897.33 469.57 895.18V895.15ZM462.7 964.38C460 963.53 457.44 962.6 455.07 961.6C445.41 957.48 439.17 952.08 439.17 947.8C439.17 943.52 445.41 938.09 455.07 934C457.41 933 459.97 932.09 462.62 931.25C464.286 936.915 466.334 942.461 468.75 947.85C466.363 953.227 464.342 958.76 462.7 964.41V964.38ZM472.82 1001.29C471.749 1001.31 470.69 1001.06 469.74 1000.56C466.03 998.43 464.42 990.33 465.67 979.92C465.97 977.35 466.46 974.66 467.06 971.92C472.76 973.306 478.546 974.308 484.38 974.92C487.85 979.716 491.638 984.273 495.72 988.56C486.83 996.8 478.49 1001.32 472.82 1001.32V1001.29ZM500.05 984.2C497.378 981.419 494.848 978.506 492.47 975.47C494.93 975.58 497.47 975.66 499.97 975.66C502.47 975.66 505.07 975.61 507.55 975.47C505.211 978.524 502.707 981.448 500.05 984.23V984.2ZM530.43 1000.45C529.466 1000.96 528.381 1001.21 527.29 1001.16C521.65 1001.16 513.29 996.66 504.39 988.45C508.449 984.178 512.211 979.634 515.65 974.85C521.492 974.246 527.285 973.243 532.99 971.85C533.604 974.466 534.078 977.113 534.41 979.78C535.69 990.23 534.11 998.32 530.43 1000.48V1000.45ZM544.91 961.6C542.56 962.6 540 963.5 537.35 964.35C535.682 958.682 533.634 953.133 531.22 947.74C533.593 942.376 535.598 936.857 537.22 931.22C539.92 932.07 542.48 932.99 544.88 934C554.54 938.12 560.78 943.52 560.78 947.8C560.78 952.08 554.56 957.54 544.91 961.63V961.6Z" fill="black" stroke="white" stroke-width="16"/>
<path d="M499.97 960.29C506.851 960.29 512.43 954.711 512.43 947.83C512.43 940.949 506.851 935.37 499.97 935.37C493.089 935.37 487.51 940.949 487.51 947.83C487.51 954.711 493.089 960.29 499.97 960.29Z" fill="black" stroke="white" stroke-width="24"/>
<path d="M566.88 947.83C566.88 938.97 555.78 930.57 538.77 925.36C542.7 908.02 540.95 894.23 533.26 889.81C531.467 888.621 529.324 888.071 527.18 888.25C519.18 888.38 509.87 893.6 499.95 902.87C490 893.65 479 888.2 472.71 888.36C469.55 888.45 468.34 888.88 466.55 889.92C458.88 894.33 457.17 908.1 461.12 925.39C444.12 930.62 433.12 939 433.12 947.83C433.12 956.66 444.22 965.09 461.23 970.3C457.3 987.64 459.05 1001.43 466.74 1005.85C468.609 1006.9 470.726 1007.43 472.87 1007.38C480.37 1007.38 490.18 1002.03 500.11 992.76C510.03 1001.98 519.85 1007.27 527.35 1007.27C529.503 1007.32 531.629 1006.79 533.51 1005.74C541.17 1001.32 542.89 987.55 538.93 970.27C555.84 965.06 566.88 956.66 566.88 947.83ZM527.16 894.34C528.237 894.309 529.304 894.553 530.26 895.05C533.97 897.18 535.58 905.28 534.33 915.69C534.03 918.25 533.54 920.95 532.94 923.69C527.239 922.309 521.453 921.307 515.62 920.69C512.148 915.899 508.359 911.346 504.28 907.06C513.16 898.87 521.49 894.35 527.16 894.34ZM475.84 961.79C477.12 963.97 478.43 966.097 479.77 968.17C475.9 967.6 472.16 966.89 468.59 966.02C469.59 962.5 470.85 958.87 472.27 955.25C473.39 957.43 474.56 959.61 475.84 961.79ZM468.51 929.64C472.08 928.8 475.84 928.06 479.74 927.49C478.41 929.59 477.07 931.74 475.82 933.95C474.57 936.16 473.39 938.31 472.27 940.49C470.836 936.938 469.582 933.317 468.51 929.64ZM475.46 947.91C477.15 944.26 479.06 940.6 481.11 937.03C483.16 933.46 485.41 929.86 487.68 926.62C491.74 926.26 495.86 926.07 500 926.07C504.14 926.07 508.23 926.26 512.27 926.59C514.53 929.83 516.74 933.3 518.87 936.95C521 940.6 522.87 944.15 524.54 947.8C522.82 951.46 520.94 955.11 518.89 958.68C516.84 962.25 514.59 965.85 512.32 969.1C508.26 969.45 504.14 969.64 500 969.64C495.86 969.64 491.77 969.45 487.73 969.12C485.47 965.88 483.26 962.42 481.13 958.76C479 955.1 477.18 951.56 475.46 947.91ZM524.16 961.71C525.41 959.53 526.58 957.32 527.7 955.14C529.134 958.695 530.389 962.319 531.46 966C527.89 966.87 524.13 967.61 520.23 968.18C521.57 966.07 522.9 963.92 524.16 961.71ZM524.16 933.87C522.91 931.69 521.57 929.56 520.23 927.49C524.11 928.057 527.837 928.773 531.41 929.64C530.41 933.16 529.15 936.79 527.73 940.41C526.58 938.23 525.41 936.05 524.13 933.87H524.16ZM507.5 920.15C505.04 920.05 502.5 919.96 500 919.96C497.5 919.96 494.9 920.02 492.42 920.15C494.76 917.109 497.264 914.198 499.92 911.43C502.592 914.207 505.122 917.117 507.5 920.15ZM469.57 895.15C470.534 894.636 471.619 894.39 472.71 894.44C478.35 894.44 486.71 898.94 495.61 907.15C491.551 911.422 487.789 915.966 484.35 920.75C478.508 921.354 472.715 922.357 467.01 923.75C466.38 921.03 465.92 918.38 465.59 915.85C464.31 905.43 465.89 897.33 469.57 895.18V895.15ZM462.7 964.38C460 963.53 457.44 962.6 455.07 961.6C445.41 957.48 439.17 952.08 439.17 947.8C439.17 943.52 445.41 938.09 455.07 934C457.41 933 459.97 932.09 462.62 931.25C464.286 936.915 466.334 942.461 468.75 947.85C466.363 953.227 464.342 958.76 462.7 964.41V964.38ZM472.82 1001.29C471.749 1001.31 470.69 1001.06 469.74 1000.56C466.03 998.43 464.42 990.33 465.67 979.92C465.97 977.35 466.46 974.66 467.06 971.92C472.76 973.306 478.546 974.308 484.38 974.92C487.85 979.716 491.638 984.273 495.72 988.56C486.83 996.8 478.49 1001.32 472.82 1001.32V1001.29ZM500.05 984.2C497.378 981.419 494.848 978.506 492.47 975.47C494.93 975.58 497.47 975.66 499.97 975.66C502.47 975.66 505.07 975.61 507.55 975.47C505.211 978.524 502.707 981.448 500.05 984.23V984.2ZM530.43 1000.45C529.466 1000.96 528.381 1001.21 527.29 1001.16C521.65 1001.16 513.29 996.66 504.39 988.45C508.449 984.178 512.211 979.634 515.65 974.85C521.492 974.246 527.285 973.243 532.99 971.85C533.604 974.466 534.078 977.113 534.41 979.78C535.69 990.23 534.11 998.32 530.43 1000.48V1000.45ZM544.91 961.6C542.56 962.6 540 963.5 537.35 964.35C535.682 958.682 533.634 953.133 531.22 947.74C533.593 942.376 535.598 936.857 537.22 931.22C539.92 932.07 542.48 932.99 544.88 934C554.54 938.12 560.78 943.52 560.78 947.8C560.78 952.08 554.56 957.54 544.91 961.63V961.6Z" fill="#61DAFB"/>
<path d="M499.97 960.29C506.851 960.29 512.43 954.711 512.43 947.83C512.43 940.949 506.851 935.37 499.97 935.37C493.089 935.37 487.51 940.949 487.51 947.83C487.51 954.711 493.089 960.29 499.97 960.29Z" fill="#61DAFB"/>
<path d="M271.4 568.53C270.4 540.17 289.4 516.17 314.68 504.97C317.335 503.883 320.061 502.981 322.84 502.27C336.855 498.806 351.598 499.759 365.05 505C368.119 506.18 371.102 507.57 373.98 509.16C403.51 525.05 416.77 562.41 405.34 592.62C404.182 595.666 402.784 598.615 401.16 601.44C397.172 609.748 391.149 616.913 383.65 622.27C381.148 624.111 378.526 625.781 375.8 627.27C348.42 640.27 311.42 636.27 289.35 615.87C287.14 613.527 285.098 611.031 283.24 608.4C281.118 605.397 279.254 602.219 277.67 598.9C274.317 592.095 272.388 584.677 272 577.1C271.638 574.257 271.438 571.396 271.4 568.53Z" fill="#F3AB98"/>
<path d="M269.77 550.18C268.77 521.82 287.77 497.82 313.05 486.62C315.701 485.533 318.424 484.631 321.2 483.92C335.213 480.438 349.96 481.374 363.42 486.6C366.485 487.78 369.466 489.17 372.34 490.76C401.87 506.65 415.13 544.02 403.7 574.22C402.55 577.269 401.152 580.219 399.52 583.04C398.138 585.749 396.564 588.356 394.81 590.84C393.082 593.302 391.184 595.641 389.13 597.84C386.91 600.037 384.53 602.066 382.01 603.91C379.51 605.753 376.887 607.424 374.16 608.91C346.78 621.91 309.78 617.91 287.72 597.52C285.509 595.174 283.468 592.674 281.61 590.04C279.485 587.037 277.618 583.859 276.03 580.54C272.668 573.761 270.725 566.366 270.32 558.81C269.962 555.947 269.779 553.065 269.77 550.18Z" fill="white" stroke="#592D3D" stroke-width="12" stroke-miterlimit="10"/>
<path d="M338.51 563.03C345.27 563.03 350.75 557.55 350.75 550.79C350.75 544.03 345.27 538.55 338.51 538.55C331.75 538.55 326.27 544.03 326.27 550.79C326.27 557.55 331.75 563.03 338.51 563.03Z" fill="#592D3D"/>
<path d="M583.89 560.47C584.32 545.34 590.56 530.38 598.99 519.14C601.143 516.12 603.523 513.268 606.11 510.61C617.61 498.622 633.012 491.133 649.543 489.492C666.074 487.852 682.648 492.166 696.28 501.66C698.552 503.245 700.732 504.958 702.81 506.79C729.81 528.24 732.93 569.93 718.13 600.02C716.692 602.411 715.095 604.703 713.35 606.88C711.036 609.781 708.502 612.499 705.77 615.01C685.5 632.84 653.96 637.14 628.36 627.43C624.713 626.054 621.184 624.382 617.81 622.43C599.91 611.65 587.44 591.34 584.38 570.2C583.966 566.974 583.802 563.721 583.89 560.47Z" fill="#F3AB98"/>
<path d="M589.38 549C589.8 534.85 595.8 520.85 603.9 510.34C605.984 507.506 608.277 504.832 610.76 502.34C622.011 491.101 636.819 484.123 652.649 482.602C668.478 481.08 684.345 485.11 697.53 494C699.712 495.477 701.809 497.076 703.81 498.79C729.81 518.86 732.81 557.86 718.55 586.01C717.168 588.255 715.631 590.4 713.95 592.43C711.717 595.146 709.28 597.686 706.66 600.03C687.15 616.71 656.8 620.74 632.17 611.65C628.656 610.346 625.255 608.758 622 606.9C604.78 596.82 592.78 577.82 589.83 558.05C589.437 555.05 589.287 552.024 589.38 549Z" fill="white" stroke="#592D3D" stroke-width="12" stroke-miterlimit="10"/>
<path d="M659.21 563.03C665.97 563.03 671.45 557.55 671.45 550.79C671.45 544.03 665.97 538.55 659.21 538.55C652.45 538.55 646.97 544.03 646.97 550.79C646.97 557.55 652.45 563.03 659.21 563.03Z" fill="#592D3D"/>
<path d="M443.14 621.86C443.14 602.96 556.86 605.8 556.86 621.86C556.86 636.94 550.869 651.403 540.206 662.066C529.543 672.729 515.08 678.72 500 678.72C484.92 678.72 470.457 672.729 459.794 662.066C449.131 651.403 443.14 636.94 443.14 621.86Z" fill="#592D3D"/>
<path d="M443.14 621.86C443.14 602.96 556.86 605.8 556.86 621.86C556.86 636.94 550.869 651.403 540.206 662.066C529.543 672.729 515.08 678.72 500 678.72C484.92 678.72 470.457 672.729 459.794 662.066C449.131 651.403 443.14 636.94 443.14 621.86Z" stroke="#592D3D" stroke-width="6" stroke-miterlimit="10"/>
<path d="M532.49 646.6C532.49 638.54 517.94 632 500 632C482.06 632 467.51 638.54 467.51 646.6V690.94C467.51 705.35 482.06 717.02 500 717.02C517.94 717.02 532.49 705.35 532.49 690.94V646.61V646.6Z" fill="#F28195"/>
<path d="M532.49 646.6C532.49 638.54 517.94 632 500 632C482.06 632 467.51 638.54 467.51 646.6V690.94C467.51 705.35 482.06 717.02 500 717.02C517.94 717.02 532.49 705.35 532.49 690.94V646.61V646.6Z" stroke="#592D3D" stroke-width="8" stroke-miterlimit="10"/>
<path d="M479.31 626.6L480.22 626.39L480.98 626.25C481.47 626.17 481.98 626.11 482.44 626.07C483.4 625.972 484.366 625.938 485.33 625.97C487.285 626.013 489.228 626.284 491.12 626.78C495.08 627.787 498.668 629.908 501.46 632.89C504.088 635.703 505.851 639.213 506.54 643C507.167 646.509 506.689 650.125 505.17 653.35C503.09 650.42 501.51 647.8 499.85 645.59C499.102 644.533 498.28 643.53 497.39 642.59C496.585 641.763 495.682 641.037 494.7 640.43C492.834 639.31 490.751 638.601 488.59 638.35C487.453 638.2 486.307 638.127 485.16 638.13C484.57 638.13 483.98 638.13 483.4 638.13L482.55 638.19H482.15C482.06 638.19 481.86 638.19 481.93 638.19L479.31 626.6Z" fill="#592D3D"/>
<path d="M558.73 399.34C545.87 423.34 498.73 436.78 494.9 430.76C490.61 424.03 532.75 375.44 508.8 324.62" fill="#F3AB98"/>
<path d="M784 342.85C778.9 337.75 752.94 344.68 726.81 342.62C701.207 307.848 667.934 279.445 629.575 259.615C591.217 239.786 548.804 229.063 505.63 228.28C503.19 207.8 504.88 190.6 503.02 188.18C500.53 184.96 487.53 200.86 484.15 219.18C472.24 204.18 452.01 196.18 451.43 200.38C451.05 203.06 458.87 214.47 466.24 230.28C354.64 243.75 263.16 322.54 231.16 427.28C217.3 439.2 204.3 447.62 204.16 452.97C203.89 462.89 243.47 462.33 260.74 460.79V460.73C321.39 458.73 439.74 446.95 497.16 387.84C491.64 406.93 481.47 421 483.43 424C486.43 428.67 521.75 418.81 533.5 400.76C581.5 420.35 672.99 443.92 752.5 384.6L752.28 384.17C766.77 372.06 790.35 349.25 784 342.85Z" fill="#D96E27"/>
<path d="M726.85 348.62C721.45 348.86 716.19 348.73 710.85 348.48C705.51 348.23 700.26 347.81 694.98 347.22C692.34 346.93 689.7 346.62 687.07 346.22C684.44 345.82 681.8 345.5 679.18 344.99C673.841 344.03 668.619 342.509 663.6 340.45C668.846 339.107 674.2 338.23 679.6 337.83C682.23 337.61 684.86 337.46 687.49 337.35L695.37 337.01C700.62 336.79 705.86 336.67 711.09 336.56C716.32 336.45 721.57 336.44 726.71 336.56L726.85 348.62Z" fill="#592D3D"/>
<path d="M236.6 430C236.6 430 236.6 430.24 236.6 430.39L236.48 430.92L236.2 432.03C235.99 432.78 235.77 433.55 235.54 434.32C235.07 435.87 234.54 437.46 234 439.07C233.46 440.68 232.94 442.35 232.23 444.07C231.833 444.968 231.371 445.837 230.85 446.67C230.251 447.658 229.558 448.586 228.78 449.44C227.094 447.964 225.813 446.081 225.06 443.97C224.717 443.029 224.463 442.058 224.3 441.07C224.09 440.07 223.99 439.07 223.87 438.12C223.669 436.125 223.669 434.115 223.87 432.12C223.968 431.111 224.128 430.109 224.35 429.12C224.47 428.62 224.6 428.12 224.76 427.61C224.837 427.349 224.927 427.092 225.03 426.84C225.13 426.56 225.21 426.36 225.39 425.94L236.6 430Z" fill="#592D3D"/>
<path d="M260.74 460.82V460.76C277.74 460.2 299.37 458.86 322.88 455.92C325.51 400 344.88 334.34 388.8 257.48L382 254.23C346.131 270.896 314.166 294.917 288.18 324.734C262.194 354.552 242.767 389.499 231.16 427.31C217.3 439.23 204.3 447.65 204.16 453C203.89 462.92 243.47 462.36 260.74 460.82Z" fill="#C65C22"/>
<path d="M784 342.85C778.9 337.75 752.94 344.68 726.81 342.62C701.207 307.848 667.934 279.445 629.575 259.615C591.217 239.786 548.804 229.063 505.63 228.28C503.19 207.8 504.88 190.6 503.02 188.18C500.53 184.96 487.53 200.86 484.15 219.18C472.24 204.18 452.01 196.18 451.43 200.38C451.05 203.06 458.87 214.47 466.24 230.28C354.64 243.75 263.16 322.54 231.16 427.28C217.3 439.2 204.3 447.62 204.16 452.97C203.89 462.89 243.47 462.33 260.74 460.79V460.73C321.39 458.73 439.74 446.95 497.16 387.84C491.64 406.93 481.47 421 483.43 424C486.43 428.67 521.75 418.81 533.5 400.76C581.5 420.35 672.99 443.92 752.5 384.6L752.28 384.17C766.77 372.06 790.35 349.25 784 342.85Z" stroke="#592D3D" stroke-width="12" stroke-miterlimit="10"/>
<path d="M505.93 244.31C491.686 245.13 477.502 246.78 463.45 249.25C459.97 249.92 456.5 250.66 453.01 251.3C449.52 251.94 446.11 252.91 442.66 253.71L432.4 256.43C429 257.43 425.63 258.51 422.25 259.55C408.767 263.898 395.594 269.153 382.82 275.28C369.985 281.51 357.545 288.524 345.57 296.28C356.236 286.552 368.01 278.114 380.65 271.14C393.299 264.077 406.618 258.285 420.41 253.85C423.89 252.85 427.35 251.76 430.83 250.8C434.31 249.84 437.83 248.98 441.38 248.2C444.93 247.42 448.48 246.8 452.04 246.2C455.6 245.6 459.19 245.13 462.77 244.68C477.096 242.918 491.576 242.793 505.93 244.31Z" fill="white"/>
<path d="M600.89 460.57C611.933 457.755 623.119 455.535 634.4 453.92L631.74 454.27C644.92 452.53 658.28 452.02 671.49 453.79L668.83 453.43C672.1 453.89 675.37 454.43 678.65 454.85L675.99 454.49C685.944 455.854 695.794 457.896 705.47 460.6C710.47 461.99 716.57 458.87 717.77 453.6C718.424 451.042 718.059 448.331 716.754 446.037C715.448 443.742 713.303 442.044 710.77 441.3C699.422 438.192 687.861 435.926 676.18 434.52L678.84 434.88C667.808 432.922 656.585 432.268 645.4 432.93C634.276 433.66 623.218 435.181 612.31 437.48C606.69 438.61 601.11 439.91 595.55 441.28C590.47 442.53 586.93 448.54 588.55 453.58C589.294 456.113 590.992 458.258 593.287 459.564C595.581 460.869 598.292 461.234 600.85 460.58L600.89 460.57Z" fill="#592D3D"/>
<path d="M286.14 460.6C295.724 457.819 305.501 455.75 315.39 454.41L312.73 454.77C329.786 452.537 347.061 452.563 364.11 454.85L361.45 454.5C371.395 455.856 381.235 457.894 390.9 460.6C395.9 462 402 458.87 403.2 453.6C403.854 451.042 403.489 448.331 402.184 446.037C400.878 443.742 398.733 442.044 396.2 441.3C381.757 437.282 366.951 434.703 352 433.6C327.993 432.037 303.897 434.646 280.78 441.31C278.273 442.035 276.131 443.678 274.78 445.91C273.445 448.244 273.085 451.012 273.78 453.61C275.43 458.72 280.69 462.15 286.08 460.61L286.14 460.6Z" fill="#592D3D"/>
</g>
</svg>
